P2
3 3 
255
000 000 000 
000 000 154 
000 000 000 
